<?xml version="1.0" standalone="no"?>
<!DOCTYPE svg PUBLIC "-//W3C//DTD SVG 20010904//EN"
 "http://www.w3.org/TR/2001/REC-SVG-20010904/DTD/svg10.dtd">
<svg version="1.0" xmlns="http://www.w3.org/2000/svg"
 width="192.000000pt" height="192.000000pt" viewBox="0 0 192.000000 192.000000"
 preserveAspectRatio="xMidYMid meet">
<metadata>
Created by potrace 1.14, written by Peter Selinger 2001-2017
</metadata>
<g transform="translate(0.000000,192.000000) scale(0.100000,-0.100000)"
fill="#000000" stroke="none">
<path d="M598 1892 c-15 -25 -16 -31 -3 -50 8 -11 31 -26 50 -32 36 -12 85
-61 85 -86 0 -9 -11 -14 -30 -15 -16 -1 -33 -2 -37 -3 -5 -1 -28 -6 -53 -10
-181 -32 -364 -113 -453 -200 -74 -73 -100 -130 -101 -221 -1 -99 10 -179 42
-304 l19 -75 -24 -25 c-13 -14 -38 -55 -56 -91 -31 -63 -32 -68 -32 -195 1
-114 4 -136 24 -183 13 -28 27 -52 32 -52 5 0 9 -5 9 -11 0 -19 83 -99 150
-144 125 -83 282 -142 459 -171 116 -20 373 -25 490 -11 346 42 626 193 719
387 25 51 27 65 27 185 0 120 -2 134 -26 186 -15 31 -44 75 -64 98 -34 37 -36
44 -27 69 14 34 43 147 48 187 3 17 7 40 9 52 16 71 15 124 -2 175 -13 38 -16
64 -11 89 4 19 7 63 6 99 -3 172 -112 261 -323 265 -38 0 -83 -2 -100 -6 -16
-4 -43 -10 -60 -12 -38 -6 -145 -46 -165 -61 -23 -19 -59 -11 -78 15 -80 115
-180 160 -209 96 -14 -32 -2 -57 37 -76 55 -26 46 -36 -31 -36 l-72 0 -23 52
c-26 56 -87 113 -143 132 -51 17 -65 14 -83 -17z m1049 -254 c30 -28 58 -78
43 -78 -6 0 -28 11 -50 25 -22 14 -41 25 -44 25 -2 0 -21 8 -42 17 -22 9 -47
18 -57 20 -10 2 -28 9 -40 15 -20 12 -19 13 23 18 58 7 136 -13 167 -42z"/>
</g>
</svg>
